<?xml version="1.0" encoding="utf-8"?>
<!-- Generator: Adobe Illustrator 25.1.0, SVG Export Plug-In . SVG Version: 6.00 Build 0)  -->
<svg version="1.1" id="Layer_1" xmlns="http://www.w3.org/2000/svg" xmlns:xlink="http://www.w3.org/1999/xlink" x="0px" y="0px"
	 viewBox="0 0 1159 771" style="enable-background:new 0 0 1159 771;" xml:space="preserve">
<style type="text/css">
	.st0{fill:#FFFFFF;}
	.st1{clip-path:url(#SVGID_2_);}
	.st2{opacity:0.4;fill:#D1DDED;}
	.st3{fill:#2D6AFF;}
	.st4{fill:#A5F4FB;}
	.st5{fill:#93B5FD;}
	.st6{clip-path:url(#SVGID_4_);}
	.st7{fill:#FEA59D;}
	.st8{fill:#713735;}
	.st9{fill:#29325B;}
	.st10{fill:#F3405E;}
	.st11{fill:#EC6768;}
	.st12{fill:#FFF9ED;}
	.st13{fill:#1A2949;}
	.st14{fill:#AD1C39;}
	.st15{fill:#0EAD75;}
	.st16{fill:#F7C025;}
	.st17{fill:#DD811C;}
	.st18{fill:#1B1C2E;}
	.st19{fill:#8E95AF;}
	.st20{fill:#007E53;}
	.st21{fill:#3F4752;}
	.st22{fill:#070000;}
</style>
<rect class="st0" width="1159" height="771"/>
<g>
	<defs>
		<path id="SVGID_1_" d="M438.07,664.71c37.57,4.65,291.97,18.39,458-143.88c102.7-100.37,126.67-257.97,70.8-331.39
			c-0.2-0.27-0.61-0.8-0.61-0.8l0.64-84.77l-803.64,3.23c0,0-0.35,108.02,0.7,148.85c0.67,25.9-1.52,93.63-1.16,153.54
			c0.25,40.35,1.65,77.15,5.87,95.23c10.85,46.45,46.27,80.4,85.58,103.54C309.85,640.97,374.82,656.88,438.07,664.71z"/>
	</defs>
	<clipPath id="SVGID_2_">
		<use xlink:href="#SVGID_1_"  style="overflow:visible;"/>
	</clipPath>
	<g class="st1">
		<path class="st2" d="M438.07,664.71c37.57,4.65,291.97,18.39,458-143.88c103.08-100.74,126.85-259.12,70.19-332.19
			c-58.26-75.13-205.38-88.63-324.98,20.54c-26.36,24.06-44.37,57.02-74.11,77.2c-39.17,26.57-88.24,33.35-134.32,31.39
			c-42.06-1.79-85.43-9.25-127.22-1.66c-38.81,7.05-75.53,24.96-105.15,51.49c-36.52,32.71-42.28,91.44-31.78,137.12
			c10.68,46.49,46.27,80.4,85.58,103.54C309.85,640.97,374.82,656.88,438.07,664.71z"/>
		<g>
			<path class="st3" d="M886.74,255.49c-1.08-1-1.88-1.97-2.36-2.82c-0.3-0.53-0.12-1.2,0.41-1.5c0.53-0.3,1.2-0.12,1.5,0.41
				c1.85,3.25,11.02,10.18,22.77,8.07c4.14-0.74,7.88-2.46,11.18-4.76c-0.8-4.23-0.92-9.09-0.75-14.54c0.1-3.21,1-19.33,8.51-21.93
				c3.18-1.1,7.5,0.44,9.43,3.37c2.25,3.4,1.84,9.52-1.1,16.38c-2.53,5.91-7.2,12.78-13.64,17.66c0.97,4.12,2.71,7.47,5.68,9.98
				c7.23,6.12,18.03,2.72,18.48,2.57c1.07-0.35,2.1-0.77,3.07-1.25c-2-5.73-0.47-13.31,2.49-18.02c1.97-3.14,5.35-6.45,8.39-5.46
				c2.74,0.9,3.88,4.22,3.79,6.92c-0.22,6.44-5.19,13.46-11.87,17.51c0.66,1.16,1.54,2.16,2.69,2.93c3.9,2.64,10.89,0.62,13.72-0.37
				l0.75,2.07c-3.92,1.38-11.14,3.21-15.71,0.12c-1.44-0.98-2.55-2.25-3.36-3.71c-1.07,0.53-2.16,0.98-3.28,1.35
				c-0.5,0.16-12.42,3.91-20.59-2.99c-3.15-2.66-5.08-6.12-6.19-10.3c-3.36,2.22-7.14,3.87-11.31,4.62
				C899.43,263.62,890.97,259.4,886.74,255.49z M934.8,222.07c-1.6-1.48-4.21-2.22-6.07-1.57c-4.46,1.55-6.74,11.12-7.02,19.92
				c-0.16,4.84-0.07,9.19,0.53,12.98c5.66-4.57,9.79-10.76,12.08-16.11c2.6-6.08,3.09-11.56,1.29-14.29
				C935.37,222.66,935.1,222.35,934.8,222.07z M961,246.27c-0.25-0.23-0.54-0.42-0.88-0.53c-1.55-0.51-4.18,1.91-5.83,4.53
				c-2.62,4.17-4.06,10.81-2.44,15.79c6.42-3.94,10.37-10.53,10.54-15.58C962.44,249.2,962.08,247.27,961,246.27z"/>
			<path class="st3" d="M229.36,396.45c-1.46,0-2.71-0.17-3.63-0.47c-0.58-0.18-0.9-0.8-0.71-1.38c0.18-0.58,0.8-0.9,1.38-0.71
				c3.55,1.13,14.94-0.01,22.1-9.49c2.52-3.34,4.1-7.13,4.96-11.03c-3.44-2.55-6.82-6.02-10.38-10.13
				c-2.09-2.41-12.33-14.81-8.61-21.79c1.58-2.95,5.78-4.75,9.17-3.91c3.94,0.96,7.78,5.72,10.27,12.71
				c2.15,6.03,3.38,14.2,1.97,22.13c3.5,2.36,7.03,3.63,10.9,3.46c9.42-0.42,15.02-10.2,15.25-10.61c0.55-0.98,1.01-1.98,1.4-2.99
				c-5.34-2.84-9.34-9.41-10.36-14.86c-0.68-3.63-0.45-8.34,2.44-9.66c2.61-1.19,5.69,0.46,7.45,2.49
				c4.19,4.85,5.3,13.35,3.16,20.83c1.26,0.4,2.59,0.53,3.95,0.33c4.64-0.71,8.39-6.91,9.78-9.54l1.95,1.01
				c-1.94,3.66-5.98,9.88-11.4,10.71c-1.72,0.26-3.38,0.08-4.96-0.44c-0.42,1.11-0.92,2.18-1.49,3.2
				c-0.26,0.46-6.44,11.26-17.07,11.73c-4.1,0.18-7.85-1.04-11.49-3.34c-0.96,3.89-2.6,7.66-5.14,11.02
				C244.13,393.82,235.09,396.45,229.36,396.45z M241.9,339.53c-2.17,0-4.57,1.22-5.5,2.96c-2.21,4.14,2.59,12.69,8.33,19.31
				c3.16,3.64,6.16,6.77,9.16,9.14c1.05-7.17-0.11-14.48-2.06-19.95c-2.21-6.21-5.55-10.54-8.72-11.32
				C242.73,339.58,242.32,339.53,241.9,339.53z M277.42,339.51c-0.34,0-0.68,0.06-1,0.21c-1.48,0.67-1.77,4.22-1.2,7.26
				c0.9,4.82,4.34,10.65,8.89,13.2c2.03-7.22,0.46-14.71-2.82-18.52C280.46,340.68,278.88,339.51,277.42,339.51z"/>
			<path class="st3" d="M671.65,390.85c0.06-0.43,0.4-0.78,0.85-0.85c3.3-0.45,9.79-0.63,16.24,3.22
				c1.93,1.16,7.49,4.94,10.16,11.59c4.39,0.35,9.7,1.6,14.47,4.95c10.31,7.26,11.58,18.99,11.73,21.27
				c1.09,16.77-13.29,26.49-13.9,26.89c-0.46,0.3-1.08,0.18-1.39-0.28c-0.3-0.46-0.18-1.08,0.28-1.39
				c0.14-0.09,14.03-9.48,13.01-25.1c-0.14-2.12-1.31-13.03-10.88-19.76c-4.08-2.87-8.67-4.06-12.6-4.48
				c0.26,0.93,0.46,1.9,0.59,2.93c0.75,6.04-1.11,13.14-4.64,17.67c-2.31,2.96-5.22,4.73-8.41,5.12c-3.52,0.43-7.23-0.74-10.18-3.2
				c-2.72-2.28-4.37-5.31-4.53-8.32c-0.41-7.75,8.74-14.3,17.47-15.91c0.92-0.17,3.44-0.56,6.75-0.5c-2.68-5.76-7.72-9.03-8.94-9.76
				c-5.92-3.54-11.9-3.37-14.94-2.96c-0.55,0.08-1.05-0.31-1.13-0.86C671.64,391.04,671.64,390.94,671.65,390.85z M697.46,406.75
				c-3.77-0.17-6.59,0.31-7.19,0.42c-6.88,1.27-16.23,6.79-15.84,13.84c0.13,2.46,1.52,4.97,3.82,6.89
				c2.52,2.11,5.67,3.12,8.65,2.75c2.66-0.33,5.1-1.84,7.08-4.37c3.23-4.14,4.93-10.65,4.24-16.19
				C698.06,408.91,697.8,407.8,697.46,406.75z"/>
			<path class="st3" d="M791.05,632.07c-0.42,0.13-0.89-0.03-1.14-0.41c-1.83-2.81-4.78-8.63-4.05-16.14
				c0.22-2.25,1.27-8.93,6.17-14.21c-1.57-4.15-2.72-9.5-1.72-15.28c2.17-12.49,12.29-18.68,14.3-19.8
				c14.79-8.21,29.79,0.7,30.42,1.09c0.47,0.29,0.63,0.91,0.34,1.38c-0.29,0.47-0.91,0.63-1.38,0.34c-0.14-0.09-14.62-8.7-28.4-1.05
				c-1.87,1.04-11.28,6.79-13.29,18.38c-0.86,4.94,0.03,9.63,1.34,13.38c0.73-0.63,1.53-1.23,2.41-1.79
				c5.17-3.28,12.42-4.63,18.06-3.37c3.68,0.83,6.54,2.71,8.27,5.45c1.91,3.02,2.44,6.89,1.46,10.63c-0.9,3.45-2.95,6.25-5.62,7.69
				c-6.87,3.71-16.75-1.81-21.97-9.05c-0.55-0.77-1.99-2.88-3.35-5.92c-4.08,4.91-4.89,10.9-5.03,12.32
				c-0.68,6.9,2.05,12.27,3.73,14.85c0.3,0.47,0.17,1.09-0.29,1.39C791.23,632.01,791.14,632.05,791.05,632.07z M794.42,601.78
				c1.47,3.49,3.11,5.86,3.47,6.36c4.11,5.71,13.14,11.83,19.38,8.45c2.18-1.18,3.87-3.52,4.63-6.43c0.84-3.2,0.39-6.49-1.22-9.04
				c-1.44-2.27-3.86-3.85-7.01-4.56c-5.15-1.16-11.8,0.09-16.54,3.1C796.12,600.3,795.22,601.02,794.42,601.78z"/>
			<path class="st3" d="M521.25,283.4c-4.01,0-7.53-1.81-8.08-2.11c-0.36-0.2-0.5-0.65-0.3-1.02c0.2-0.36,0.65-0.5,1.02-0.3
				c0.72,0.39,7.19,3.72,12.22,0.65c4.27-2.6,4.75-8.21,4.96-11.46c-7.75-0.85-15.76-5.19-20.9-9.42
				c-6.72-5.52-12.08-14.33-9.04-18.94c2.52-3.82,8.82-3.54,9.68-3.37c11.93,2.4,22.08,16.71,21.82,30.4
				c4.04,0.21,7.99-0.7,11.3-3.51c7.81-6.64,9.5-22.01-0.44-34.32c-0.26-0.32-0.21-0.79,0.11-1.05c0.32-0.26,0.79-0.21,1.05,0.11
				c10.49,12.99,8.6,29.31,0.24,36.41c-3.54,3.01-7.86,4.04-12.34,3.83c-0.22,3.53-0.75,9.62-5.67,12.62
				C525.07,283.01,523.11,283.4,521.25,283.4z M509.52,238.83c-1.9,0-5.63,0.49-7.14,2.79c-2.27,3.44,1.73,11.2,8.74,16.96
				c3.6,2.96,11.83,8.14,20.01,9.11c0.21-12.99-9.37-26.53-20.62-28.8C510.32,238.86,509.97,238.83,509.52,238.83z"/>
			<path class="st3" d="M922.88,391.07c4.39-0.44,8.43,1.16,9.06,1.42c0.42,0.18,0.62,0.66,0.44,1.08
				c-0.18,0.42-0.66,0.61-1.08,0.44c-0.83-0.35-8.27-3.28-13.44,0.62c-4.39,3.31-4.3,9.49-4.17,13.07
				c8.56,0.08,17.8,3.95,23.88,8.01c7.95,5.3,14.78,14.35,11.95,19.73c-2.34,4.45-9.26,4.84-10.22,4.74
				c-13.3-1.33-25.97-15.86-27.18-30.85c-4.44,0.21-8.66,1.64-11.98,5.07c-7.82,8.11-7.98,25.11,4.23,37.48
				c0.32,0.32,0.32,0.84-0.01,1.16c-0.32,0.32-0.85,0.32-1.16-0.01c-12.89-13.06-12.6-31.11-4.25-39.78
				c3.54-3.68,8.16-5.28,13.07-5.53c-0.15-3.88-0.23-10.6,4.82-14.42C918.75,391.91,920.85,391.27,922.88,391.07z M940.58,438.51
				c2.08-0.21,6.1-1.15,7.51-3.83c2.1-4.01-3.12-12.06-11.41-17.59c-4.26-2.84-13.82-7.61-22.88-7.78
				c1.19,14.23,13.14,27.99,25.69,29.24C939.7,438.57,940.08,438.56,940.58,438.51z"/>
			<path class="st3" d="M362,246.37c0.81,3.5-0.06,6.94-0.2,7.48c-0.1,0.36-0.47,0.57-0.82,0.47c-0.36-0.1-0.57-0.47-0.47-0.82
				c0.19-0.71,1.79-7.02-1.91-10.8c-3.14-3.2-8.13-2.48-11-2c0.83,6.93-1.33,14.8-3.98,20.15c-3.45,6.98-10.05,13.45-14.69,11.73
				c-3.84-1.42-4.88-6.98-4.9-7.77c-0.32-10.89,10.1-22.66,22.09-25.2c-0.63-3.56-2.23-6.83-5.36-9.15
				c-7.38-5.47-21.13-3.82-29.86,7.34c-0.23,0.29-0.65,0.34-0.94,0.12c-0.29-0.23-0.34-0.65-0.12-0.94
				c9.21-11.79,23.83-13.44,31.71-7.6c3.34,2.48,5.12,6.04,5.84,9.99c3.12-0.52,8.55-1.3,12.16,2.39
				C360.88,243.11,361.62,244.75,362,246.37z M325.5,265.64c0.39,1.66,1.57,4.81,3.88,5.67c3.46,1.28,9.42-3.79,13.02-11.06
				c1.85-3.74,4.7-11.97,3.89-19.31c-11.38,2.45-21.25,13.55-20.94,23.83C325.36,264.93,325.41,265.24,325.5,265.64z"/>
		</g>
		<g>
			<g>
				<path class="st3" d="M857.34,246.62h-3.18v-67.13c0-5.09-4.14-9.24-9.24-9.24H669.3v-3.18h175.62c6.85,0,12.42,5.57,12.42,12.42
					V246.62z"/>
				<path class="st3" d="M336.96,243.77h3.42v-67.13c0-5.09,4.46-9.24,9.94-9.24h90.34v-3.18h-90.34c-7.37,0-13.37,5.57-13.37,12.42
					V243.77z"/>
				<g>
					<path class="st4" d="M802.94,275.51h108.79c5.56,0,10.07-4.51,10.07-10.07v-53.73c0-5.56-4.51-10.07-10.07-10.07H802.94
						c-5.56,0-10.07,4.51-10.07,10.07v53.73C792.87,271,797.38,275.51,802.94,275.51z"/>
					<g>
						<circle class="st0" cx="891.88" cy="237.5" r="7.32"/>
						<circle class="st0" cx="859.14" cy="237.5" r="7.32"/>
						<circle class="st0" cx="826.22" cy="237.5" r="7.32"/>
					</g>
				</g>
			</g>
			<g>
				<path class="st5" d="M755.54,337.89H448.48c-5.6,0-10.14-4.54-10.14-10.14v-207.1c0-5.6,4.54-10.14,10.14-10.14h307.06
					c5.6,0,10.14,4.54,10.14,10.14v207.1C765.68,333.35,761.14,337.89,755.54,337.89z"/>
				<path class="st3" d="M765.68,135.11H438.34v-14.59c0-5.53,4.48-10.01,10.01-10.01h307.32c5.53,0,10.01,4.48,10.01,10.01V135.11z
					"/>
				<g>
					<defs>
						<path id="SVGID_3_" d="M736.36,337.89h-279.5c-5.6,0-10.14-4.54-10.14-10.14V139.8c0-5.6,4.54-10.14,10.14-10.14h279.5
							c5.6,0,10.14,4.54,10.14,10.14v187.96C746.5,333.35,741.96,337.89,736.36,337.89z"/>
					</defs>
					<clipPath id="SVGID_4_">
						<use xlink:href="#SVGID_3_"  style="overflow:visible;"/>
					</clipPath>
					<g id="woman_30_" class="st6">
						<g>
							<g>
								<path class="st7" d="M493.11,192.85c0,0-6.17-12.75-8.14-14.79c-1.97-2.03-3.41-1.86-4.56-0.15
									c-1.15,1.71,2.27,6.91,2.38,9.57c0.11,2.66-1.38,1.5-1.38,1.5s-13.73-18.45-15.93-17.92c-2.2,0.53-2.02,2.41-1.31,3.27
									c0.7,0.86,10.63,15.91,10.63,15.91s-13.07-18.7-14.28-18.43c-1.21,0.27-2.64,0.55-1.08,3.6
									c1.56,3.05,10.55,16.69,10.55,16.69s-11.58-14.76-13.7-15.01c-2.12-0.25-1.79,2.51-1.2,3.38
									c0.59,0.87,11.66,16.65,11.66,16.65s-10.26-9.37-12.33-8.51c-0.36,0.15-0.6,0.36-0.74,0.61c-0.81,1.5,2.09,4.49,3.45,5.95
									c6.47,6.96,4.2,7.6,9.81,13c2.38,2.29,6.1,5.79,12.07,8.18c3.89,1.56,7.36,2.09,9.75,2.29c3.22-1.63,6.43-3.25,9.65-4.88
									C498.38,213.75,496,201.29,493.11,192.85z"/>
							</g>
						</g>
						<g>
							<g>
								<g>
									<path class="st8" d="M605.4,175.45c-1.63-2.87-6.04-9.48-4.03-16.12c1.16-3.82,4.23-6.88,8.22-10.91
										c3.53-3.57,5.3-5.35,7.9-6.56c7.26-3.37,18.37-2.35,22.03,3.64c0.92,1.51,0.75,2.18,0.87,3.18
										c0.34-0.59,2.18-2.53,5.31-2.79c0.82-0.07,1.68-0.03,2.56,0.13c2.18,0.4,4.11,1.67,5.49,3.41
										c0.45,0.56,0.93,1.21,1.35,1.84c16.58,24.99,17.46,63.13,17.46,63.13c0.45,19.43,6.62,47.57,33.58,83.27
										c-29.3,14.33-51.64,16.81-67.16,16.12c-8.61-0.38-36.26-2.69-36.26-2.69c-1.99-43.68,0.04-70.34,2.69-87.3
										C608.17,206.03,613.15,189.08,605.4,175.45z"/>
								</g>
							</g>
						</g>
						<g>
							<g>
								<g>
									<g>
										<path class="st9" d="M617.69,716.52l0.29,3.72c0,0-65.91,3.95-72.21,3.2c-6.31-0.75-13.1-7.71-13.4-11.44
											c-0.29-3.72,4.74-2.54,4.74-2.54L617.69,716.52z"/>
									</g>
								</g>
							</g>
							<g>
								<g>
									<polygon class="st7" points="607.79,686.06 606.6,670.96 580.94,670.79 582,684.23 586.03,695.28 									"/>
								</g>
							</g>
							<g>
								<g>
									<g>
										<path class="st9" d="M534.76,710.56c1.63,4.87,6.9,8.2,10.72,9.15c1.91,0.47,19.27-0.27,36.19-1.14
											c5.89-0.3,11.72-0.61,16.84-0.9c9.64-0.53,16.7-0.95,16.7-0.95c-0.19-2.47-2.03-10.05-3.83-17.05
											c-0.79-3.11-1.58-6.1-2.21-8.48c-0.82-3.06-1.38-5.12-1.38-5.12c-10.03-0.46-19.57,5.29-19.57,5.29
											c0.85-5.07-8.33-10.59-8.33-10.59s-1.8,8.89-4.18,10.32c-0.12,0.07-0.33,0.19-0.63,0.34c-0.62,0.32-1.59,0.8-2.84,1.41
											c-0.77,0.38-1.66,0.8-2.62,1.27c-0.89,0.43-1.86,0.89-2.88,1.37c-0.89,0.43-1.82,0.87-2.79,1.33
											c-0.94,0.44-1.9,0.9-2.88,1.37c-1.68,0.8-3.43,1.63-5.18,2.45l-0.01,0C545.42,705.58,534.76,710.56,534.76,710.56z"/>
									</g>
								</g>
							</g>
							<g>
								<g>
									<g>
										<path class="st9" d="M575.7,691.09c-1.14,0.68-10.4,5.09-19.82,9.54c0,0.01,0,0.01,0.01,0.01
											c1.07,1.27,2.21,2.38,3.31,2.99c3.92,2.19,12.41-0.98,19.57-5.29c5.45-3.29,22.57-6.05,30.39-7.17
											c-0.82-3.06-1.38-5.12-1.38-5.12c-10.03-0.46-19.57,5.29-19.57,5.29c0.85-5.07-8.33-10.59-8.33-10.59
											S578.09,689.66,575.7,691.09z"/>
									</g>
								</g>
							</g>
							<g>
								<g>
									<g>
										<path class="st9" d="M598.51,717.67c9.64-0.53,16.7-0.95,16.7-0.95c-0.19-2.47-2.03-10.05-3.83-17.05
											c-1.76-0.04-3.57,0.22-5.4,1.11C599.7,703.82,595.98,712.96,598.51,717.67z"/>
									</g>
								</g>
							</g>
							<g>
								<g>
									<g>
										<path class="st9" d="M534.76,710.56c1.63,4.87,6.9,8.2,10.72,9.15c1.91,0.47,19.27-0.27,36.19-1.14
											c-1.03-2.95-4.89-6.8-18.06-6.53c-21.2,0.42-22.25,3-18.82-1.01c3.43-4.02,13.42-5.09,11.1-10.38
											c-0.01,0-0.01,0-0.01-0.01l-0.01,0C545.42,705.58,534.76,710.56,534.76,710.56z"/>
									</g>
								</g>
							</g>
							<g>
								<g>
									<g>
										<g>
											<path class="st9" d="M572.23,692.85l3.12,4.28c0.33,0.46,0.87,0.68,1.39,0.64c0.28-0.02,0.56-0.12,0.8-0.3
												c0.7-0.51,0.85-1.49,0.34-2.19l-2.81-3.84C574.46,691.75,573.48,692.23,572.23,692.85z"/>
										</g>
									</g>
								</g>
							</g>
							<g>
								<g>
									<g>
										<g>
											<path class="st9" d="M566.73,695.48l3.05,4.18c0.33,0.46,0.87,0.68,1.39,0.64c0.28-0.02,0.56-0.12,0.8-0.3
												c0.7-0.51,0.85-1.49,0.34-2.19l-2.7-3.7C568.72,694.54,567.75,695,566.73,695.48z"/>
										</g>
									</g>
								</g>
							</g>
							<g>
								<g>
									<g>
										<g>
											<path class="st9" d="M561.06,698.18l2.58,3.54c0.33,0.46,0.87,0.68,1.39,0.64c0.28-0.02,0.56-0.12,0.8-0.3
												c0.7-0.51,0.85-1.49,0.34-2.19l-2.23-3.06C563.01,697.26,562.05,697.72,561.06,698.18z"/>
										</g>
									</g>
								</g>
							</g>
						</g>
						<g>
							<g>
								<g>
									<g>
										<path class="st9" d="M739.35,716.57l0.29,3.72c0,0-65.91,3.95-72.21,3.2c-6.31-0.75-13.1-7.71-13.4-11.44
											c-0.29-3.73,4.74-2.54,4.74-2.54L739.35,716.57z"/>
									</g>
								</g>
							</g>
							<g>
								<g>
									<polygon class="st7" points="729.45,686.12 728.26,671.01 702.6,670.84 703.66,684.28 707.69,695.33 									"/>
								</g>
							</g>
							<g>
								<g>
									<g>
										<path class="st9" d="M656.42,710.61c1.63,4.87,6.9,8.2,10.72,9.16c1.91,0.47,19.27-0.27,36.19-1.14
											c5.89-0.3,11.72-0.61,16.84-0.9c9.64-0.53,16.7-0.95,16.7-0.95c-0.19-2.47-2.03-10.05-3.83-17.05
											c-0.79-3.11-1.58-6.1-2.21-8.48c-0.82-3.06-1.38-5.12-1.38-5.12c-10.03-0.46-19.57,5.29-19.57,5.29
											c0.85-5.07-8.33-10.59-8.33-10.59s-1.8,8.89-4.18,10.32c-0.12,0.07-0.33,0.19-0.63,0.34c-0.62,0.32-1.59,0.8-2.84,1.41
											c-0.77,0.38-1.66,0.8-2.62,1.27c-0.89,0.43-1.86,0.89-2.88,1.37c-0.89,0.43-1.82,0.87-2.79,1.33
											c-0.94,0.44-1.9,0.9-2.88,1.37c-1.68,0.8-3.43,1.63-5.18,2.45l-0.01,0C667.08,705.63,656.42,710.61,656.42,710.61z"/>
									</g>
								</g>
							</g>
							<g>
								<g>
									<g>
										<path class="st9" d="M697.37,691.15c-1.14,0.68-10.4,5.09-19.82,9.54c0,0.01,0,0.01,0.01,0.01
											c1.07,1.27,2.21,2.38,3.31,2.99c3.92,2.19,12.41-0.98,19.57-5.29c5.45-3.29,22.57-6.05,30.39-7.17
											c-0.82-3.06-1.38-5.12-1.38-5.12c-10.03-0.46-19.57,5.29-19.57,5.29c0.85-5.07-8.33-10.59-8.33-10.59
											S699.75,689.71,697.37,691.15z"/>
									</g>
								</g>
							</g>
							<g>
								<g>
									<g>
										<path class="st9" d="M720.17,717.72c9.64-0.53,16.7-0.95,16.7-0.95c-0.19-2.47-2.03-10.05-3.83-17.05
											c-1.76-0.04-3.57,0.22-5.4,1.11C721.36,703.88,717.64,713.02,720.17,717.72z"/>
									</g>
								</g>
							</g>
							<g>
								<g>
									<g>
										<path class="st9" d="M656.42,710.61c1.63,4.87,6.9,8.2,10.72,9.16c1.91,0.47,19.27-0.27,36.19-1.14
											c-1.03-2.95-4.89-6.8-18.06-6.53c-21.2,0.42-22.25,3-18.82-1.01c3.43-4.02,13.42-5.09,11.1-10.38
											c-0.01-0.01-0.01-0.01-0.01-0.01l-0.01,0C667.08,705.63,656.42,710.61,656.42,710.61z"/>
									</g>
								</g>
							</g>
							<g>
								<g>
									<g>
										<g>
											<path class="st9" d="M693.89,692.9l3.12,4.28c0.33,0.46,0.87,0.68,1.39,0.64c0.28-0.02,0.56-0.12,0.8-0.3
												c0.7-0.51,0.85-1.49,0.34-2.19l-2.81-3.84C696.12,691.81,695.15,692.29,693.89,692.9z"/>
										</g>
									</g>
								</g>
							</g>
							<g>
								<g>
									<g>
										<g>
											<path class="st9" d="M688.39,695.54l3.05,4.18c0.33,0.46,0.87,0.68,1.39,0.64c0.28-0.02,0.56-0.12,0.8-0.3
												c0.7-0.51,0.85-1.49,0.34-2.19l-2.7-3.7C690.38,694.59,689.42,695.05,688.39,695.54z"/>
										</g>
									</g>
								</g>
							</g>
							<g>
								<g>
									<g>
										<g>
											<path class="st9" d="M682.73,698.23l2.58,3.54c0.33,0.46,0.87,0.68,1.39,0.64c0.28-0.02,0.56-0.12,0.8-0.3
												c0.7-0.51,0.85-1.49,0.34-2.19l-2.23-3.06C684.67,697.31,683.71,697.77,682.73,698.23z"/>
										</g>
									</g>
								</g>
							</g>
						</g>
						<g>
							<g>
								<polygon class="st10" points="481.06,217.99 487.25,226.22 487.5,226.55 488.13,227.39 492.93,233.78 505.92,220.2 
									503.88,216.92 503.12,215.67 503.11,215.66 498.18,207.72 								"/>
							</g>
						</g>
						<g>
							<g>
								<g>
									<path class="st11" d="M731.8,394.17c0,0-7.04,11.73-4.69,11.73c2.35,0,7.04-9.39,7.04-9.39s-5.75,13.38-3.29,14.32
										c1.1,0.42,6.63-13.1,6.63-13.1s-6.86,16.38-3.34,16.38c3.52,0,8.21-19.95,8.21-19.95l-7.04-11.73
										C735.32,382.44,729.45,388.3,731.8,394.17z"/>
								</g>
							</g>
							<g>
								<g>
									<path class="st7" d="M730.62,368.36c5.42,5.41,9.71,10.26,12.91,14.08c3.75,4.48,5.53,7,5.87,10.56
										c0.29,3.01-0.6,5.17-2.35,9.39c-2.17,5.25-6.68,13.63-9.39,12.91c-0.65-0.18-0.99-0.82-1.17-1.17
										c-1.45-2.75,2.12-5.47,3.52-11.73c0.55-2.46,1.05-4.7,0-7.04c-1.72-3.83-6.84-5.99-7.4-5.12c-0.21,0.32-0.13,0.86,0.36,1.6
										c2.35,3.52,8.21,9.39,5.87,10.56c-2.35,1.17-8.21-7.04-10.56-8.21c-2.35-1.17-8.21-7.04-9.39-10.56
										c-1.17-3.52-4.69-15.25-4.69-15.25l12.91-5.87L730.62,368.36z"/>
								</g>
							</g>
						</g>
						<g>
							<g>
								<path class="st10" d="M709.04,362.49l1.98,5.48c0.01,0,0.01,0,0.01,0l0.26,0.76l0.51,1.38l3.1,8.53l18.73-7.21l-3.99-7.62
									l-0.57-1.1l-0.12-0.22l-2.3-4.4L709.04,362.49z"/>
							</g>
						</g>
						<g>
							<g>
								<g>
									<path class="st12" d="M596.01,340.47c5.46-1.81,12.15-3.37,19.85-3.75c7.14-0.36,11.3,0.75,22.73,1.34
										c8.46,0.44,15.51,0.74,20.54,0.95c5.16-20.58,6.57-31.35,6.26-36.86c0,0,0-0.03,0-0.04c-0.36-6.47-1-11.19-1.25-13.13
										c-0.06-0.47,0.03,0.04-1.59-16.81c-0.36-3.74-0.72-7.5-1.07-11.24c-0.91-9.55-1.82-19.07-2.71-28.61
										c-0.04-0.35-0.07-0.71-0.11-1.06c0-0.05-0.01-0.11-0.01-0.16c-3.89-2.45-8.78-4.92-14.71-6.68
										c-19.08-5.68-35.88-0.11-42.78,2.67c-0.95,1.79-2.28,4.43-3.67,7.7c-3.38,7.94-6.44,17.99-8.36,45.78
										c-2.13,30.73,0.11,40.23,1.02,43.76C591.94,331.26,594.26,336.77,596.01,340.47z"/>
								</g>
							</g>
						</g>
						<g>
							<g>
								<g>
									<path class="st3" d="M574,672.21c2.17,0.56,4.62,0.07,7.34-1.47h24.95c1.2-1.64,3.41-4.76,5.87-8.81
										c32.59-53.61,10.74-108.9,8.38-208.23c-0.22-9.31-0.35-22.28,0.12-38.11c0.21-7.37,0.56-15.35,1.07-23.87c0,0,0,0,0-0.01
										c0.06-0.72,0.1-1.45,0.15-2.19c17,65.22,30.65,116.81,40.1,152.41c9.88,37.17,10.82,38.28,12.04,47.13
										c4.17,30.14,0.34,50.11,14.47,68.46c5.06,6.56,10.74,10.74,14.68,13.21h24.95c3.13,0,6.94-0.57,10.27-2.94
										c23.91-17.03-15.6-100.71-48.34-216.77c-5.01-17.81-9.41-34.7-13.25-50.55c-1.91-7.85-3.68-15.44-5.33-22.75
										c-4.11-18.17-7.44-34.61-10.16-49.03c-19.95,0.37-39.88,0.75-59.83,1.13c-3.67,0.07-7.35,0.13-11.02,0.21
										c-3.67,24.65-7.02,47.95-10,69.93C556.41,576.43,554.25,667.17,574,672.21z"/>
								</g>
							</g>
						</g>
						<g>
							<g>
								<g>
									<path class="st12" d="M622.23,393.46l1.17-0.64c-4.98-9.09-12.89-24.2-12.89-26.02h-1.34
										C609.18,369.57,620.9,391.02,622.23,393.46z"/>
								</g>
							</g>
						</g>
						<g>
							<g>
								<g>
									<g>
										<path class="st12" d="M653.32,344.57l83.75,324.48c0.41-0.19,0.83-0.39,1.23-0.57l-83.69-324.24L653.32,344.57z"/>
									</g>
								</g>
							</g>
						</g>
						<g>
							<g>
								<g>
									<g>
										<path class="st12" d="M602.02,670.74h1.31c1-98.83,14.83-284.9,15.02-287.17l-1.34-0.1
											C616.83,385.76,602.99,571.78,602.02,670.74z"/>
									</g>
								</g>
							</g>
						</g>
						<g>
							<g>
								<g>
									<path class="st13" d="M659.16,366.22c0.22,0,0.33-0.06,0.43-0.11l0.35-0.19l0.05-0.46h-0.67l-0.49-0.44
										c0.12-0.12,0.26-0.15,0.3-0.15h0c-0.15,0-1.79-0.2-11.47-6.66c-11.54-7.69-9.09-25.91-9.07-26.09l-1.32-0.19
										c-0.11,0.78-2.59,19.23,9.65,27.39C655.87,365.31,658.31,366.22,659.16,366.22z"/>
								</g>
							</g>
						</g>
						<g>
							<g>
								<path class="st9" d="M580.47,399.96c6.75-1.89,11.14-5.18,11.14-5.18l9.88-64.95c-3.67,0.07-7.35,0.13-11.02,0.21
									C586.8,354.68,583.45,377.99,580.47,399.96z"/>
							</g>
						</g>
						<g>
							<g>
								<path class="st9" d="M637.11,378.64l4.4,27.89c15.78,0.69,27.4-2.48,35.29-6.05c-1.91-7.85-3.68-15.44-5.33-22.75
									L637.11,378.64z"/>
							</g>
						</g>
						<g>
							<g>
								<path class="st10" d="M635.4,371.68c0.04,5.81,0.12,11.57,0.25,17.23c5.15,2.89,16.95,8.54,32.29,7.34
									c7.35-0.57,13.36-2.55,17.61-4.4c1.28-3.93,2.47-7.84,3.55-11.71c1.34-4.71,2.52-9.39,3.58-14.02
									c1.56-6.77,2.8-13.42,3.77-19.92c7.62-51.45-2.85-94.13-29.99-112.88c-2.98-2.05-6.49-4.07-10.64-5.77
									c-4.84-2.01-10.54-3.63-17.25-4.51c1.35,4.36,2.72,10.38,2.94,17.61c0.21,6.47-0.57,11.98-1.47,16.15
									c-1.66,18.52-2.94,37.86-3.74,57.94c-0.28,7.02-0.5,14.12-0.66,21.33C635.37,348.19,635.29,360.07,635.4,371.68z"/>
							</g>
						</g>
						<g>
							<g>
								<path class="st14" d="M664.14,288.98c0,0,14.18,58.63,28.55,77.14c1.56-6.77,2.8-13.42,3.77-19.92L664.14,288.98z"/>
							</g>
						</g>
						<g>
							<g>
								<path class="st10" d="M654.73,270.02c14.46,26.86,18.92,28.33,24.95,42.57c5.77,13.64,3.04,15.5,10.28,30.82
									c9.98,21.12,18.14,23.84,20.96,24.53c0.03,0.01,0.06,0.01,0.1,0.03c0.01,0,0.01,0,0.01,0c0.28,0.07,0.82,0.19,1.56,0.31
									c0.91,0.15,2.13,0.29,3.52,0.31c3.23,0.06,7.34-0.51,10.54-3.16c0.34-0.28,0.66-0.59,0.95-0.9h0.01
									c0.54-0.56,1.03-1.16,1.45-1.82c0.07-0.1,0.15-0.22,0.19-0.32h0.01c8.44-13.61-4.07-46.18-9.97-61.55
									c-2.22-5.77-9.92-25.04-26.42-45.5c-10.54-13.08-19.41-23.79-29.36-22.02c-7.24,1.29-13.21,8.85-14.68,16.15
									C647.55,255.95,650.02,261.25,654.73,270.02z"/>
							</g>
						</g>
						<g>
							<g>
								<path class="st10" d="M553.45,383.04c17.61,16.15,36.7,0,36.7,0l1.44-11.67l7.54-61.05l7.16-57.92
									c0-7.34,10.27-30.58,10.27-30.58c-6.81-0.57-13.3,2.5-18.74,6.39c-6.3,4.49-11.18,10.08-13.55,12.45
									c-2.11,2.11-9.29,34.98-16.19,68.61c-1.41,6.85-2.8,13.74-4.14,20.4c-3.52,17.51-6.63,33.47-8.54,43.29
									C554.17,379.27,553.45,383.04,553.45,383.04z"/>
							</g>
						</g>
						<g>
							<g>
								<path class="st14" d="M563.35,332.64c7.23-17.65,22.58-58.98,23.04-60.32c-0.56,0.94-10.34,17.94-16.91,29.85
									C568.95,309.15,563.82,325.86,563.35,332.64z"/>
							</g>
						</g>
						<g>
							<g>
								<path class="st10" d="M486.95,234.72c0.11,5.52,1.38,19.34,21.23,43.14c13.77,16.52,20.67,24.79,29.96,27.71
									c25.72,8.09,51.94-16.28,54.79-19c5.78-21,11.55-42.02,17.31-63.02c-7.63,3.24-15.98,7.34-24.69,12.55
									c-12.67,7.57-23.13,15.71-31.53,23.27c-1.47,1.31-2.87,2.6-4.2,3.87c-0.21,0.2-0.42,0.39-0.61,0.58
									c-4.9-6.89-8.68-12.29-10.8-15.32c-12.84-18.42-16.63-24.67-25.05-29.11c-3.04-1.6-5.91-2.6-8.29-3.25l-1.19,0.79
									l-0.76-1.25l0.02-0.01c-0.01,0-0.01,0-0.03,0c-0.42-0.1-0.81-0.17-1.19-0.24c-4.69,3.02-9.38,6.05-14.07,9.07
									c-0.09,0.46-0.19,0.96-0.27,1.49c-0.03,0.17-0.06,0.36-0.09,0.57c-0.07,0.44-0.14,0.9-0.2,1.38
									C487.05,229.87,486.89,232.17,486.95,234.72z"/>
							</g>
						</g>
						<g>
							<g>
								<path class="st7" d="M616.53,182.97c0.12,7.97,0.23,15.94,0.35,23.9c0.05,3.8,0.11,7.59,0.16,11.39
									c0.05,3.73,0.11,7.47,0.16,11.2c0.23,0.56,2.74,6.39,8.69,7.63c5.12,1.08,10.62-1.68,13.37-6.94v-47.19H616.53z"/>
							</g>
						</g>
						<g>
							<g>
								<g>
									<path class="st11" d="M616.88,206.4c0.07,4.44,0.14,8.87,0.21,13.31c13.43-3.39,15.13-17.02,15.13-17.02L616.88,206.4z"/>
								</g>
							</g>
						</g>
						<g>
							<g>
								<g>
									<path class="st15" d="M635.4,371.68c0.04,5.81,0.12,11.57,0.25,17.23c1.13,0.63,2.58,1.39,4.33,2.2
										c0.46,0.21,0.95,0.43,1.45,0.63c1.72,0.75,3.67,1.48,5.81,2.14c0.48,0.15,0.97,0.29,1.47,0.44c1.83,0.51,3.8,0.97,5.9,1.31
										c0.48,0.09,0.97,0.18,1.47,0.23c1.72,0.25,3.52,0.43,5.39,0.5c0.48,0.01,0.97,0.03,1.47,0.03
										c1.61,0.04,3.29-0.01,5.01-0.15c0.85-0.07,1.69-0.16,2.5-0.26c0.51-0.06,1-0.12,1.5-0.21c2.35-0.35,4.54-0.84,6.52-1.41
										c0.53-0.13,1.03-0.29,1.53-0.46c2.1-0.65,3.96-1.36,5.58-2.07c1.28-3.93,2.47-7.84,3.55-11.71
										c-2.05,0.23-4.64,0.38-7.82,0.32c-0.47,0-0.97-0.01-1.47-0.03h-0.01c-1.94-0.07-4.08-0.22-6.44-0.44
										c-0.47-0.06-0.97-0.1-1.45-0.16c-2.26-0.25-4.71-0.59-7.37-1.03c-0.47-0.09-0.95-0.16-1.45-0.25
										c-2.05-0.37-4.24-0.79-6.55-1.28c-0.48-0.1-0.95-0.22-1.45-0.32c-1.89-0.43-3.86-0.88-5.92-1.41
										c-0.48-0.12-0.97-0.23-1.45-0.37c-1.88-0.48-3.83-1.01-5.84-1.59c-0.48-0.13-0.95-0.26-1.45-0.41
										C638.79,372.71,637.11,372.21,635.4,371.68z"/>
								</g>
							</g>
						</g>
						<g>
							<g>
								<g>
									<path class="st15" d="M553.45,383.04c0.54,0.5,1.07,0.95,1.61,1.38c0.43,0.35,0.85,0.67,1.28,0.97
										c2.44,1.78,4.87,2.97,7.27,3.73c0.48,0.15,0.97,0.29,1.45,0.41c2,0.48,3.95,0.69,5.81,0.69c0.5,0,0.98-0.01,1.47-0.04
										c2.08-0.13,4.07-0.51,5.9-1.03c0.5-0.15,1-0.31,1.48-0.47c1.64-0.56,3.14-1.2,4.45-1.86c0.53-0.26,1.03-0.53,1.48-0.78
										c2.82-1.57,4.49-2.99,4.49-2.99l1.44-11.67c-1.54,0.35-3.39,0.69-5.59,0.98c-0.47,0.06-0.97,0.13-1.47,0.19
										c-1.35,0.15-2.82,0.29-4.42,0.41c-0.48,0.03-0.97,0.06-1.47,0.09c-1.81,0.1-3.76,0.19-5.89,0.23
										c-0.48,0.01-0.97,0.01-1.47,0.01c-1.82,0.03-3.76,0.03-5.83,0c-0.48,0-0.97-0.01-1.47-0.01c-1.54-0.04-3.14-0.09-4.81-0.16
										c-0.5-0.01-1-0.03-1.5-0.06c-0.75-0.03-1.5-0.06-2.28-0.1C554.17,379.27,553.45,383.04,553.45,383.04z"/>
								</g>
							</g>
						</g>
						<g>
							<g>
								<path class="st16" d="M636.31,314.74c5.39-13.14,19.46-47.56,23.68-59.07c3.64-9.94-0.97-21.8-4.15-28.12
									c-4.84-2.01-10.54-3.63-17.25-4.51c1.35,4.36,2.72,10.38,2.94,17.61c0.21,6.47-0.57,11.98-1.47,16.15
									C638.39,275.33,637.11,294.66,636.31,314.74z"/>
							</g>
						</g>
						<g>
							<g>
								<path class="st16" d="M598.9,312.13l7.39-59.73c0-7.34,10.27-30.58,10.27-30.58c-6.81-0.57-13.3,2.5-18.74,6.39
									c-0.09,1.13-0.21,2.35-0.34,3.64c-1.57,15.43-4.43,20.11-5.87,29.36C590.22,270.26,589.55,288.07,598.9,312.13z"/>
							</g>
						</g>
						<g>
							<g>
								<path class="st14" d="M549.82,263.24c0.88,4.32,1.85,9.34,2.61,14.13l1.59-18C552.55,260.68,551.16,261.97,549.82,263.24z"
									/>
							</g>
						</g>
						<g>
							<g>
								<g>
									<path class="st14" d="M487.5,226.55c-0.07,0.44-0.14,0.9-0.2,1.38l0.83-0.55l15.75-10.47l-0.76-1.25l-15.53,10.31
										l-0.34,0.23L487.5,226.55z"/>
								</g>
							</g>
						</g>
						<g>
							<g>
								<g>
									<path class="st14" d="M711.3,368.73l0.51,1.38l4.3-1.53l11.49-4.05h0.01l2.03-0.72l-0.57-1.1c0.07-0.1,0.15-0.22,0.19-0.32
										l-0.31,0.1l-16.37,5.78L711.3,368.73z"/>
								</g>
							</g>
						</g>
						<g>
							<g>
								<path class="st17" d="M641.59,237.72c0.47-1.27,0.73-2.57,0.79-3.86c0.1-1.3,0-2.59-0.19-3.88
									c-0.23-1.28-0.54-2.56-1.12-3.78c-0.53-1.21-1.33-2.39-2.44-3.2l-0.12,0.08c0.67,1.06,1.1,2.25,1.45,3.45
									c0.35,1.2,0.59,2.44,0.77,3.68c0.42,2.48,0.63,4.99,0.7,7.51H641.59z"/>
							</g>
						</g>
						<g>
							<g>
								<path class="st17" d="M617,221.82c-0.87,0.69-1.54,1.54-2.26,2.36c-0.65,0.87-1.24,1.77-1.83,2.69
									c-1.16,1.84-2.02,3.82-2.81,5.83c-0.72,2.03-1.34,4.1-1.7,6.22c-0.19,1.06-0.32,2.13-0.47,3.19
									c-0.04,1.09-0.14,2.15-0.09,3.24l0.14,0.03c0.44-2.07,0.92-4.13,1.51-6.16c0.58-2.03,1.23-4.04,1.98-6.02
									c0.73-1.98,1.53-3.93,2.46-5.83c0.93-1.89,1.94-3.76,3.18-5.47L617,221.82z"/>
							</g>
						</g>
						<g>
							<g>
								<path class="st14" d="M658.34,232.63c1.57,3.26,2.3,6.87,2.38,10.42c0.16,3.56-0.3,7.13-1.26,10.55
									c-0.98,3.39-2.23,6.82-3.52,10.21c-1.28,3.39-2.64,6.77-4,10.14c-2.57,6.8-5.36,13.53-7.97,20.33l-3.92,10.2
									c-1.23,3.43-2.55,6.83-3.74,10.28l0.13,0.06c5.78-13.37,11.46-26.79,16.85-40.33c1.33-3.39,2.65-6.79,3.89-10.21
									c1.23-3.43,2.51-6.85,3.37-10.4c0.86-3.55,1.22-7.23,0.92-10.87c-0.29-3.63-1.17-7.27-3.03-10.44L658.34,232.63z"/>
							</g>
						</g>
						<g>
							<g>
								<path class="st14" d="M598.14,230.36c-1.06,3.25-1.91,6.55-2.83,9.83c-0.83,3.3-1.62,6.62-2.37,9.95
									c-0.78,3.32-1.33,6.69-1.87,10.07c-0.52,3.37-0.91,6.84-0.91,10.29c0.13,6.87,0.71,13.67,1.81,20.42
									c0.59,3.37,1.25,6.72,2.12,10.04c0.47,1.65,0.98,3.29,1.6,4.9c0.62,1.6,1.34,3.21,2.46,4.57l0.12-0.08
									c-0.98-1.4-1.58-3.01-2.12-4.62c-0.52-1.62-0.94-3.26-1.31-4.92c-0.73-3.32-1.28-6.67-1.75-10.03
									c-0.87-6.73-1.46-13.5-1.47-20.27c-0.04-3.39,0.29-6.76,0.77-10.12c0.47-3.36,1.05-6.71,1.67-10.04
									c1.26-6.67,2.68-13.32,4.22-19.94L598.14,230.36z"/>
							</g>
						</g>
						<g>
							<g>
								<path class="st9" d="M616.56,408.18l4.1,7.41c0.21-7.37,0.56-15.35,1.07-23.87c0,0,0.01-0.01,0-0.01
									c-0.09-0.34-0.94-3.17-3.7-8.67L616.56,408.18z"/>
							</g>
						</g>
						<g>
							<g>
								<g>
									<g>
										<path class="st7" d="M639.13,198.01c0,0-10.58,18.01-26.7,15.38c-16.12-2.63-5.04-51.11-5.04-51.11
											c0.2,2.72,0.93,6,3.37,7.79c7.12,5.21,21.46-7.48,26.86-2.69c1.46,1.3,1.35,3.06,1.34,12.09
											C638.97,187.47,639.06,193.91,639.13,198.01z"/>
									</g>
								</g>
							</g>
						</g>
						<g>
							<g>
								<g>
									<path class="st8" d="M659.51,159.91c2.34,4.13,4.48,8.38,6.49,12.69c1.94,4.34,3.74,8.75,5.4,13.22
										c3.3,8.94,5.67,18.23,7.64,27.52c1.85,9.32,3.53,18.65,5.55,27.87c0.99,4.62,2.14,9.2,3.66,13.64
										c1.48,4.44,3.3,8.88,6.42,12.46l-0.1,0.09c-3.29-3.48-5.31-7.9-6.98-12.31c-1.66-4.45-2.91-9.04-4.01-13.65
										c-2.22-9.22-3.89-18.56-5.85-27.84c-1.87-9.29-4.22-18.49-7.32-27.45c-3.11-8.95-6.71-17.74-11.02-26.19L659.51,159.91z"/>
								</g>
							</g>
						</g>
						<g>
							<g>
								<g>
									<path class="st7" d="M649,185.69c0,4.06-2.67,7.36-5.96,7.36c-3.29,0-5.96-3.29-5.96-7.36c0-4.06,2.67-7.36,5.96-7.36
										C646.33,178.33,649,181.63,649,185.69z"/>
								</g>
							</g>
						</g>
						<g>
							<path class="st11" d="M613.2,197.32c-2.23,0-3.84-1.01-4.24-2.68c-0.31-1.29,0.09-2.26,0.47-2.84
								c0.59-0.89,1.13-1.3,1.87-1.86l0.52-0.4c1.07-0.84,1.9-1.88,2.34-2.93c0.86-2.08,0.91-3.57,0.86-4.27
								c-0.02-0.36,0.24-0.67,0.59-0.69c0.31-0.01,0.65,0.25,0.67,0.6c0.05,0.82,0,2.54-0.96,4.87c-0.52,1.26-1.49,2.49-2.74,3.46
								l-0.54,0.41c-0.71,0.54-1.11,0.84-1.58,1.55c-0.35,0.53-0.45,1.14-0.29,1.8c0.26,1.11,1.54,1.75,3.26,1.68
								c0.42-0.01,0.64,0.27,0.66,0.62c0.01,0.36-0.26,0.66-0.61,0.67C613.4,197.32,613.3,197.32,613.2,197.32z"/>
							<path class="st11" d="M616.83,204.27c-0.3,0.02-0.6,0.03-0.92,0.01c-0.98-0.06-1.92-0.41-2.79-1.04
								c-0.28-0.21-0.35-0.61-0.15-0.9c0.2-0.29,0.6-0.36,0.88-0.15c0.67,0.49,1.39,0.76,2.13,0.8c0.88,0.05,1.57-0.08,2.54-0.48
								c0.77-0.32,1.33-0.7,2.06-1.39c0.51-0.49,0.91-1.08,1.19-1.76c0.14-0.33,0.51-0.48,0.83-0.34c0.32,0.14,0.47,0.52,0.34,0.85
								c-0.35,0.85-0.85,1.59-1.49,2.2c-0.84,0.81-1.53,1.27-2.45,1.65C618.18,204.04,617.52,204.22,616.83,204.27z"/>
							<g>
								<path class="st18" d="M607.57,182.49c-0.15,1.45,0.33,2.68,1.06,2.76c0.73,0.08,1.45-1.03,1.59-2.48
									c0.15-1.45-0.33-2.68-1.06-2.76C608.43,179.93,607.71,181.04,607.57,182.49z"/>
							</g>
							<g>
								<path class="st18" d="M621.92,184.14c-0.15,1.45,0.33,2.68,1.06,2.76c0.73,0.08,1.45-1.03,1.59-2.48
									c0.15-1.45-0.33-2.68-1.06-2.76C622.78,181.58,622.07,182.69,621.92,184.14z"/>
							</g>
							<path class="st11" d="M643.36,190.19c-0.21,0-0.41-0.11-0.53-0.3c-0.19-0.3-0.1-0.7,0.19-0.9c0.91-0.6,2.11-1.61,2.6-2.95
								c0.39-1.08,0.32-2.38-0.18-3.26c-0.32-0.56-0.77-0.88-1.33-0.97c-0.54-0.08-1.23,0.07-1.99,0.42
								c-0.32,0.15-0.69,0.01-0.84-0.32c-0.15-0.33-0.01-0.71,0.31-0.86c1-0.47,1.91-0.65,2.7-0.53c0.93,0.14,1.73,0.71,2.24,1.59
								c0.7,1.21,0.8,2.92,0.27,4.37c-0.61,1.68-2.02,2.88-3.1,3.59C643.6,190.16,643.48,190.19,643.36,190.19z"/>
							<g>
								<g>
									<g>
										<path class="st8" d="M629.95,178.79l0.03-0.04c0.35-0.46,0.24-1.13-0.23-1.45c-1.55-1.05-4.92-2.98-7.89-2.34
											c-0.63,0.13-0.98,0.83-0.71,1.42l0.02,0.05c0.2,0.42,0.65,0.63,1.1,0.54c2.1-0.45,4.85,1,6.39,2.05
											C629.07,179.3,629.64,179.2,629.95,178.79z"/>
									</g>
								</g>
								<g>
									<g>
										<path class="st8" d="M604.31,176.81l-0.02-0.04c-0.27-0.51-0.07-1.15,0.45-1.39c1.69-0.78,5.32-2.14,8.15-1.04
											c0.6,0.23,0.84,0.97,0.48,1.52l-0.03,0.04c-0.26,0.39-0.74,0.52-1.16,0.35c-2-0.78-4.94,0.21-6.62,0.99
											C605.09,177.46,604.55,177.27,604.31,176.81z"/>
									</g>
								</g>
							</g>
						</g>
					</g>
				</g>
			</g>
			<g>
				<path class="st4" d="M301.26,250.76h90.9c5.61,0,10.17-4.55,10.17-10.17v-40.52c0-5.61-4.55-10.17-10.17-10.17h-90.9
					c-5.61,0-10.17,4.55-10.17,10.17v40.52C291.09,246.21,295.65,250.76,301.26,250.76z"/>
				<g>
					<g>
						<g>
							<ellipse class="st0" cx="317.32" cy="218.94" rx="11.94" ry="11.83"/>
						</g>
					</g>
					<g>
						<g>
							<g>
								<path class="st0" d="M335.99,208.67h2.64v18.32h9.05v2.21h-11.68V208.67z"/>
							</g>
						</g>
						<g>
							<g>
								<path class="st0" d="M351.34,208.67h2.64v20.53h-2.64V208.67z"/>
							</g>
						</g>
						<g>
							<g>
								<path class="st0" d="M356.81,208.67h2.79l3.34,11.1c0.73,2.42,1.23,4.37,1.99,6.78h0.13c0.77-2.41,1.28-4.37,1.99-6.78
									l3.32-11.1h2.68l-6.58,20.53h-3.06L356.81,208.67z"/>
							</g>
						</g>
						<g>
							<g>
								<path class="st0" d="M375.78,208.67h11.95v2.21h-9.31v6.43h7.85v2.21h-7.85v7.46h9.62v2.21h-12.26V208.67z"/>
							</g>
						</g>
					</g>
				</g>
			</g>
		</g>
		<g>
			<g>
				<g>
					<rect x="733.58" y="486.26" class="st19" width="679.15" height="35"/>
				</g>
				<g>
					<polygon class="st9" points="1387.2,789.26 1385.6,789.26 1385.6,522.26 753.06,522.26 753.06,789.26 751.46,789.26 
						751.46,520.26 1387.2,520.26 					"/>
				</g>
			</g>
			<g>
				<g>
					
						<ellipse transform="matrix(0.8854 -0.4648 0.4648 0.8854 -49.2969 402.0635)" class="st15" cx="790.72" cy="301" rx="12.18" ry="23.94"/>
				</g>
				<g>
					<path class="st15" d="M784.65,354.57c11.16,7.09,17.28,17.44,13.68,23.12c-3.61,5.68-15.58,4.53-26.74-2.56
						c-11.16-7.09-17.28-17.44-13.68-23.12C761.52,346.34,773.49,347.48,784.65,354.57z"/>
				</g>
				<g>
					<path class="st15" d="M836.49,309.51c-3.43,15.69-11.54,27.25-18.12,25.81c-6.57-1.44-9.12-15.32-5.69-31.02
						c3.43-15.69,11.54-27.25,18.12-25.81C837.38,279.93,839.92,293.81,836.49,309.51z"/>
				</g>
				<g>
					
						<ellipse transform="matrix(0.6305 -0.7762 0.7762 0.6305 59.7183 816.9426)" class="st15" cx="887.91" cy="345.75" rx="25.58" ry="12.18"/>
				</g>
				<g>
					
						<ellipse transform="matrix(0.9883 -0.1525 0.1525 0.9883 -40.0154 134.3363)" class="st15" cx="855.99" cy="328.1" rx="12.18" ry="25.58"/>
				</g>
				<g>
					
						<ellipse transform="matrix(0.7681 -0.6403 0.6403 0.7681 -36.2242 616.674)" class="st15" cx="833.3" cy="358.35" rx="12.18" ry="25.58"/>
				</g>
				<g>
					<polygon class="st10" points="785.26,405.6 800.39,486.26 869.69,486.26 885.13,405.6 					"/>
				</g>
				<g>
					<path class="st20" d="M854.22,405.74l-1.66-0.27c3-18.12,9.62-66.44,4.33-72.4l1.26-1.12
						C864.93,339.59,855.33,398.99,854.22,405.74z"/>
				</g>
				<g>
					
						<rect x="845.05" y="365.19" transform="matrix(0.5673 -0.8235 0.8235 0.5673 75.3089 875.389)" class="st20" width="51.16" height="1.68"/>
				</g>
				<g>
					<path class="st20" d="M855.14,399.78l-1.68-0.01c0.14-19.55-17.4-39.61-17.58-39.81l1.26-1.11
						C837.88,359.68,855.29,379.57,855.14,399.78z"/>
				</g>
				<g>
					<path class="st20" d="M817.73,405.69c-0.09-0.86-9.12-86.4-27.98-102.79l1.1-1.27c19.35,16.83,28.18,100.34,28.55,103.89
						L817.73,405.69z"/>
				</g>
				<g>
					
						<rect x="783.38" y="340.86" transform="matrix(0.0996 -0.995 0.995 0.0996 396.4723 1121.5522)" class="st20" width="69.14" height="1.68"/>
				</g>
				<g>
					<path class="st20" d="M816.7,395.58c-0.27-0.26-26.9-26.18-34.96-27.8l0.33-1.65c8.55,1.71,34.7,27.16,35.81,28.24
						L816.7,395.58z"/>
				</g>
			</g>
		</g>
		<g id="woman_14_">
			<g>
				<g>
					<g>
						<path class="st7" d="M544.15,362.83c-3.04,2.08-6.47,4.76-9.95,8.18c-4.93,4.84-8.45,9.69-10.92,13.69
							c5.18,2.81,10.35,5.62,15.53,8.43c4.64-4.86,9.28-9.72,13.92-14.58C549.87,373.31,547.01,368.07,544.15,362.83z"/>
					</g>
				</g>
				<g>
					<g>
						<g>
							<g>
								<path class="st7" d="M529.48,376.38c5.6-6.37,8.03-11.48,9.2-15.07c0.41-1.25,1.12-3.76,3.08-6.58
									c1.14-1.64,2.7-3.03,5.95-5.92c6.25-5.55,9.37-8.33,10.41-5.9c1.04,2.43-7.64,9.02-6.6,11.46
									c1.04,2.43,6.93,2.78,13.18-2.77c6.25-5.55,11.81-19.44,13.88-14.58c0.68,1.6-0.14,4.79-1.55,8.34
									c1.28-0.45,1.91-0.29,2.24-0.01c1.34,1.16-0.84,5.76-2.03,8.07c0.66,0.27,1.86,0.87,2.47,2.1c0.78,1.59,1.66,3.16,1.39,3.91
									c-3.89,10.83-17.19,18.21-17.19,18.21c-4.16,2.24-13.01,5.59-22.47,6.92c-1.12,0.19-2.59,0.26-4.2-0.18
									C531.79,382.94,529.72,377.08,529.48,376.38z"/>
							</g>
						</g>
					</g>
				</g>
				<g>
					<g>
						<path class="st7" d="M452.71,354.03c5.68,5.6,10.89,9.9,15.87,19.55c9.43,18.3,16.53,33.98,23.35,46.76
							c10.72-15.78,29.58-32.6,38.92-45.58c7.75,3.58,8.96,5.6,16.71,9.18c-7.45,14.71-15.05,27.51-23.01,40.9
							c-10.64,17.9-24.47,35.62-43.21,30.64c-3.55-0.94-9.7-4.95-21.03-26.43c-11.23-21.31-13.38-31.22-16.9-44.87
							C446.52,374.15,449.61,364.09,452.71,354.03z"/>
					</g>
				</g>
				<g>
					<g>
						<polygon class="st0" points="549.89,335.45 550.94,344.62 553.37,365.78 554.82,378.47 573.36,378.47 574.81,365.78 
							577.23,344.62 578.28,335.45 						"/>
					</g>
					<g>
						
							<rect x="547.3" y="331.22" transform="matrix(-1 -1.224647e-16 1.224647e-16 -1 1129.1083 666.6778)" class="st8" width="34.5" height="4.23"/>
					</g>
					<g>
						
							<rect x="550.12" y="328.4" transform="matrix(-1 -1.224647e-16 1.224647e-16 -1 1128.4043 659.6258)" class="st8" width="28.16" height="2.82"/>
					</g>
					<g>
						<polygon class="st8" points="550.94,344.62 553.37,365.78 574.81,365.78 577.23,344.62 						"/>
					</g>
				</g>
				<g>
					<path class="st7" d="M540.63,356.57c0,0,2.31-3.87,5.07-5.96c2.76-2.09,7.65-6.64,7.65-6.64s3.36-3.08,4.23-1.75
						c0.87,1.33-1.41,4.44-1.18,4.52c0.24,0.08-4.58,5.92-4.58,5.92s-0.81,1.25,0.31,2.53L540.63,356.57z"/>
				</g>
			</g>
			<g>
				<g>
					<path class="st17" d="M413.38,315.41c-0.32-0.54-5.18-8.93-3.26-18.33c1.83-8.97,9.08-15.18,16.93-12.76
						c1.68,1.61,4.68,4.94,7.08,10.72c2.39,5.74-5.25,10.87-5.04,13.82c1.24,11.92,3.59,20.82,2.87,26.96c-0.59,5-0.89,8.57,0,10.01
						c2.45,3.95,11.6,3.38,15.26,2.36c4.02-1.12,9.25-1.77,13.76-7.12c0.17-16.86-0.21-37.28-1.15-49.02
						c-0.43-5.4-0.85-10.63-4.27-21.19c-4.12-12.75-6.81-15.65-9.69-18.07c-3.51-2.96-7.36-2.7-9.89-2.09
						c-10.59-8.53-19.48-4.6-21.52-3.6c-2.27,1.11-6.03,2.34-11.86,9.19c-3.37,3.95-5.05,6.82-6.45,8.74
						c-10.3,14.02-16.2,64.81-17.24,70.08c3.68,2.8,23.96,4.89,29.96,8.77C410.28,335.52,411.97,323.76,413.38,315.41z"/>
				</g>
			</g>
			<g>
				<g>
					<path class="st3" d="M420.42,340.62l29.56,92.88l30.32-19.33l4.23-2.7l11.45-7.29c0,0-5.49-11.66-13.19-24.75
						c-0.51-0.84-1.01-1.7-1.54-2.55c-1.1-1.83-2.22-3.67-3.41-5.49c-0.61-0.97-1.25-1.94-1.87-2.9c-3.01-4.53-6.18-8.9-9.36-12.67
						c-0.34-0.41-0.68-0.8-1.03-1.18c-2.22-2.54-4.44-4.77-6.62-6.52c-0.86-0.69-2.43-1.5-3.3-2.1c-0.76-0.51-3.39-1.88-4.21-2.23
						c-12.28-5.23-15.12-4.91-21.67-4.57c-0.44,0.02-0.87,0.04-1.28,0.08C423.61,339.67,420.42,340.62,420.42,340.62z"/>
				</g>
			</g>
			<g>
				<g>
					<path class="st9" d="M467.78,422.1c-7.2-15.22-20.78-53.27-20.78-53.27l2.76,64.13l7.19-3.95L467.78,422.1z"/>
				</g>
			</g>
			<g>
				<g>
					<polygon class="st21" points="685.72,690.44 668.14,775.26 642.73,775.26 642.73,690.44 					"/>
				</g>
			</g>
			<g>
				<g>
					<polygon class="st21" points="446.36,690.44 446.36,775.26 420.95,775.26 395.54,676.3 					"/>
				</g>
			</g>
			<g>
				<g>
					<polygon class="st21" points="292.23,688.92 292.23,775.26 267.78,775.26 251.5,688.92 					"/>
				</g>
			</g>
			<g>
				<g>
					<g>
						<path class="st7" d="M550.1,797.07c0,0,0.09,0,0.26,0.01c0.3,0.02,0.6,0.03,0.91,0.06c0.19,0.01,0.4,0.02,0.62,0.03
							c0.19,0.01,0.41,0.02,0.65,0.05c0.33,0.01,0.66,0.03,0.99,0.06c0.16,0.01,0.33,0.01,0.5,0.02c0.22,0.02,0.43,0.02,0.65,0.05
							c0.67,0.03,1.4,0.07,2.19,0.13c0.15,0.01,0.3,0.01,0.44,0.02c0.64,0.03,1.27,0.08,1.91,0.11c0.14,0.01,0.26,0.01,0.4,0.02
							c0.82,0.06,1.67,0.09,2.56,0.15c0.95,0.06,1.94,0.11,2.98,0.17c0.82,0.05,1.64,0.09,2.46,0.14c0.09,0,0.17,0.01,0.26,0.01
							c0.24,0.01,0.49,0.03,0.74,0.05c0.62,0.05,1.26,0.08,1.89,0.11c0.49,0.02,0.99,0.06,1.49,0.08c0.67,0.03,1.35,0.08,2.06,0.11
							c3.67,0.2,7.6,0.43,11.65,0.65c2.06,0.11,4.12,0.22,6.18,0.33c2.61,0.14,5.22,0.27,7.85,0.4c0.99,0.06,1.98,0.1,2.96,0.15
							c0.97,0.05,1.92,0.1,2.85,0.15c1.35,0.07,2.71,0.13,4.08,0.19c1.18,0.06,2.31,0.1,3.43,0.16c0.61,0.03,1.22,0.06,1.82,0.09
							c0.62,0.02,1.25,0.05,1.86,0.08c0.4,0.02,0.78,0.03,1.18,0.05c0.51,0.03,1.03,0.06,1.53,0.07c1,0.05,2,0.09,2.99,0.13
							c0.49,0.02,0.97,0.05,1.45,0.07c0,0,0,0,0.02,0c1.42,0.05,2.82,0.1,4.19,0.14c0,0,0,0,0.02,0h0.1c0.8,0.03,1.6,0.07,2.4,0.09
							h0.19c0.51,0.02,1.03,0.05,1.54,0.05c0.81,0.02,1.62,0.05,2.43,0.06c0.44,0.01,0.87,0.01,1.29,0.02c0,0,0,0,0.01,0l1.29,0.03
							c1.59,0.05,3.33,0.07,5.16,0.07h0.22c0.65,0.01,1.31,0.01,1.98,0.01c-0.5,0-0.99-0.01-1.49-0.01c0.39,0,0.77,0,1.16-0.01
							c7.85-0.09,14.21-0.31,18.04-0.47v-6.33c-0.52-0.18-1.04-0.36-1.57-0.55c-7.95-1.01-20.17-3.88-32.2-12.08
							c-2.42-1.65-4.82-3.5-7.18-5.61c-14.96-13.33-20.1-29.23-21.83-35.74c0.94-8.01,1.89-16.02,2.83-24.03
							c-11.29,0.47-22.58,0.94-33.87,1.41c0.18,8.68,0.11,15.92,0,21.21c-0.24,10.53-0.64,12.98-1.42,15.55
							c-2.29,7.57-6.09,10.3-9.83,16.17c-1.01,1.58-2.04,3.46-3.01,5.67C552.19,781.55,550.38,788.21,550.1,797.07z"/>
					</g>
				</g>
			</g>
			<g>
				<g>
					<g>
						<g>
							<g>
								<g>
									<g>
										<g>
											<path class="st15" d="M544.45,796.87c4.74,0.27,11.9,0.69,20.26,1.18c8.13,0.49,17.38,1.01,26.72,1.47
												c22.26,1.14,35.39,1.79,49.36,1.9h1.33c0.22,0,0.43,0,0.65-0.01h0.49c0.39,0,0.77,0,1.16-0.01
												c7.85-0.09,14.21-0.31,18.04-0.47v-6.33c-0.52-0.18-1.04-0.36-1.57-0.55c-13.04-4.49-23.91-8.75-32.11-12.1h-0.01
												c-0.02,0.01-0.06,0.01-0.08,0.02c-4.77,1.3-11.37,2.15-20.42,2.15c-19.3,0-39.18-3.82-53.89-7.53
												c-1.73-0.44-3.38-0.88-4.95-1.3c-0.19,0.49-0.4,0.98-0.59,1.52c-0.15,0.4-0.32,0.82-0.45,1.25
												c-0.08,0.2-0.15,0.4-0.2,0.6c-0.31,0.89-0.61,1.82-0.91,2.84c-0.95,3.19-1.84,7.01-2.4,11.47
												C544.7,794.24,544.56,795.51,544.45,796.87z"/>
										</g>
									</g>
								</g>
							</g>
						</g>
					</g>
				</g>
			</g>
			<g>
				<g>
					<g>
						<g>
							<g>
								<g>
									<g>
										<g>
											<g>
												<path class="st22" d="M651.26,801.37c-0.55,0.01-1.1,0.01-1.65,0.02c0.16,0.01,0.32,0,0.48,0
													C650.49,801.39,650.88,801.38,651.26,801.37z"/>
											</g>
											<g>
												<path class="st22" d="M649.62,801.39c-1.42,0.01-2.83,0.02-4.21,0.02h2.4C648.39,801.42,648.99,801.42,649.62,801.39z"
													/>
											</g>
											<g>
												<path class="st15" d="M550.1,797.07c0,0,0.09,0,0.26,0.01c0.16,0,0.36,0.02,0.62,0.03c0.09,0.01,0.18,0.01,0.28,0.02
													c0.19,0.01,0.4,0.02,0.62,0.03c0.19,0.01,0.41,0.02,0.65,0.05c0.17,0,0.35,0.01,0.53,0.03c0.15,0,0.3,0.01,0.45,0.02
													c0.16,0.01,0.33,0.01,0.5,0.02c0.22,0.02,0.43,0.02,0.65,0.05c0.67,0.03,1.4,0.07,2.19,0.13
													c0.15,0.01,0.3,0.01,0.44,0.02c0.14,0.01,0.26,0.02,0.39,0.03c0.5,0.02,1,0.06,1.52,0.08c0.14,0.01,0.26,0.01,0.4,0.02
													c0.82,0.06,1.67,0.09,2.56,0.15c0.95,0.06,1.94,0.11,2.98,0.17c0.35,0.02,0.7,0.05,1.06,0.07
													c0.47,0.03,0.94,0.05,1.41,0.07c0.09,0,0.17,0.01,0.26,0.01c0.24,0.01,0.49,0.03,0.74,0.05
													c0.14,0.01,0.28,0.02,0.43,0.03c0.49,0.02,0.97,0.06,1.45,0.08c0.49,0.02,0.99,0.06,1.49,0.08
													c0.67,0.03,1.35,0.08,2.06,0.11c3.67,0.2,7.6,0.43,11.65,0.65c2.03,0.1,4.1,0.22,6.18,0.33
													c2.09,0.11,4.19,0.22,6.32,0.32c0.51,0.02,1.02,0.05,1.53,0.08c1.01,0.05,2,0.1,2.96,0.15c0.97,0.05,1.92,0.1,2.85,0.15
													c1.4,0.07,2.76,0.14,4.08,0.19c1.18,0.06,2.31,0.1,3.43,0.16c0.61,0.03,1.22,0.06,1.82,0.09
													c0.62,0.02,1.25,0.05,1.86,0.08c0.4,0.02,0.78,0.03,1.18,0.05c0.51,0.03,1.03,0.06,1.53,0.07
													c0.51,0.02,1.01,0.03,1.51,0.06c0.49,0.02,0.99,0.05,1.48,0.07c0.49,0.02,0.97,0.05,1.45,0.07c0,0,0,0,0.02,0
													c1.42,0.05,2.82,0.1,4.19,0.14c0,0,0,0,0.02,0h0.1c0.8,0.03,1.6,0.07,2.4,0.09h0.19c0.51,0.02,1.03,0.05,1.54,0.05
													c0.39,0.01,0.76,0.02,1.14,0.03c0.43,0.01,0.86,0.01,1.29,0.02c0.44,0.01,0.87,0.01,1.29,0.02c0,0,0,0,0.01,0l1.29,0.03
													c0.43,0.01,0.86,0.02,1.28,0.02c1.28,0.02,2.58,0.03,3.87,0.05h0.7c0.39,0,0.77,0,1.16-0.01
													c7.85-0.09,14.21-0.31,18.04-0.47v-3.96c-3.15,0.09-6.82,0.16-10.87,0.2c-0.82,0.02-1.6,0.02-2.37,0.02
													c-15.19,0.06-27.82-0.52-51.33-1.67c-8.71-0.41-17.37-0.86-24.97-1.3c-10.12-0.55-18.3-1-22.23-1.24h-0.14
													c-0.17,1.25-0.31,2.53-0.42,3.88C550.13,796.92,550.1,797.01,550.1,797.07z"/>
											</g>
										</g>
									</g>
								</g>
							</g>
						</g>
					</g>
				</g>
			</g>
			<g>
				<g>
					<polygon class="st19" points="206.03,412.62 231.76,565.16 237.43,565.68 430.35,583.21 437.61,583.87 437.83,586.75 
						446.61,701.87 685.91,701.87 709.07,542.14 492.93,542.14 449.19,412.62 					"/>
				</g>
			</g>
			<g>
				<g>
					<polygon class="st21" points="396.06,418.99 403.27,586.58 403.43,590.06 642.73,590.06 649.73,546.23 471.93,546.23 
						423.94,418.99 					"/>
				</g>
			</g>
			<g>
				<g>
					<path class="st7" d="M416.88,569.56c14.36,9.25,31.45,1.22,74.11-7.07c16.25-3.15,31.14-5.37,44.22-6.93
						c12.42-1.48,23.21-2.39,32-2.97c0.38,51.57,0.78,103.16,1.17,154.74c0.08,10.63,0.16,21.25,0.24,31.88
						c10.35,0.47,20.71,0.95,31.05,1.41c13.78-109.94,24.04-187.92,28.94-210.65c0.69-3.24,2.88-12.77-1.82-21.35
						c-6.55-11.92-22.51-14.86-29.94-16.12c-44.69-7.59-186.75,6.73-196.91,7.78C395.34,550.61,409.47,564.79,416.88,569.56z"/>
				</g>
			</g>
			<g>
				<g>
					<path class="st11" d="M502.28,490.39c10.98,21.72,21.95,43.45,32.93,65.18c12.42-1.48,23.21-2.39,32-2.97
						c0.38,51.57,0.78,103.16,1.17,154.74c3.21-55.95,8.51-99.98,12.94-130.7c4.11-28.53,9.92-62.56-7.06-74.93
						c-4.64-3.38-13.04-4.66-29.64-7.07C526.85,492.05,512.16,490.93,502.28,490.39z"/>
				</g>
			</g>
			<g>
				<g>
					<path class="st7" d="M510.75,760.42c-2.27-47.44-2.9-96.98-1.41-148.45c0.36-12.38,0.83-24.64,1.41-36.76
						c-10.98,1.96-27.62,4.7-47.99,7.07c-55.68,6.48-83.83,9.46-99.51-3.53c-4.19-3.48-22.7-20.3-16.94-69.28
						c10.16-1.04,152.23-15.37,196.91-7.78c7.43,1.26,23.4,4.2,29.94,16.12c4.68,8.53,2.53,18.01,1.82,21.34
						c-4.87,22.75-15.3,97.09-29.42,201.47C533.96,747.23,522.35,753.82,510.75,760.42z"/>
				</g>
			</g>
			<g>
				<g>
					<g>
						<path class="st7" d="M496.47,796.52c0,0,0.09,0,0.25,0.02c0.14,0,0.36,0.02,0.63,0.04c0.25,0.02,0.56,0.04,0.9,0.05
							c0.34,0.02,0.74,0.05,1.18,0.07c0.29,0,0.62,0.04,0.96,0.05c0.22,0.02,0.43,0.02,0.65,0.04c0.67,0.05,1.39,0.09,2.19,0.13
							c0.27,0.02,0.56,0.04,0.83,0.05c0.62,0.04,1.25,0.07,1.92,0.11c0.81,0.05,1.66,0.11,2.55,0.15c1.27,0.07,2.61,0.15,4.04,0.24
							c0.54,0.04,1.1,0.05,1.67,0.09c0.38,0.02,0.78,0.04,1.18,0.07c0.96,0.05,1.94,0.11,2.93,0.16c0.67,0.04,1.36,0.07,2.06,0.11
							c7.35,0.42,15.69,0.89,24.14,1.31c4.13,0.2,7.91,0.4,11.44,0.56c1.18,0.05,2.3,0.11,3.42,0.16c1.68,0.07,3.29,0.16,4.87,0.22
							c1.03,0.05,2.04,0.09,3.04,0.13c1,0.05,1.97,0.09,2.93,0.13c0,0,0,0,0.02,0c1.43,0.05,2.82,0.11,4.2,0.15c0,0,0,0,0.02,0
							c0.9,0.04,1.81,0.07,2.7,0.09c0.89,0.04,1.79,0.05,2.68,0.07c0.87,0.02,1.74,0.04,2.59,0.05c0,0,0,0,0.02,0
							c0.85,0.02,1.72,0.04,2.57,0.05c1.72,0.02,3.44,0.04,5.19,0.04c0.85,0.02,1.74,0.02,2.61,0.02h1.32c0.76,0,1.52,0,2.3-0.02
							c7.85-0.09,14.21-0.31,18.04-0.47v-6.31c-14.19-4.19-25.55-8.9-33.68-12.65l-0.02-0.02c-20.11-9.32-32.83-15.46-35.76-27.41
							c-0.43-1.74-0.33-4.33-0.16-9.32h0.31c0.52-4.8,1.05-9.62,1.54-14.5H509.9c0.31,4.84,0.6,9.66,0.9,14.5h0.16
							c0.02,2.41-0.09,4.86-0.63,7.2c-0.47,2.07-1.09,4.24-1.09,4.24c-0.8,2.92-1.21,4.37-1.86,6c-1.74,4.48-3.71,7.18-5.92,12.63
							c-0.2,0.49-0.4,0.98-0.6,1.52c-0.14,0.4-0.31,0.82-0.45,1.25c-0.07,0.2-0.14,0.4-0.2,0.6c-0.31,0.89-0.62,1.83-0.9,2.85
							c-0.04,0.11-0.07,0.22-0.09,0.34c-0.45,1.78-1.16,4.89-1.83,9.01c-0.11,0.69-0.22,1.4-0.34,2.12
							c-0.18,1.23-0.38,2.52-0.56,3.88C496.49,796.37,496.47,796.46,496.47,796.52z"/>
					</g>
				</g>
			</g>
			<g>
				<g>
					<g>
						<g>
							<g>
								<g>
									<g>
										<g>
											<path class="st15" d="M498.68,796.32c4.74,0.27,11.91,0.69,20.27,1.18c8.13,0.49,17.37,1.01,26.71,1.47
												c22.26,1.14,35.4,1.79,49.37,1.9h1.32c0.76,0,1.52,0,2.3-0.02c7.85-0.09,14.21-0.31,18.04-0.47v-6.33
												c-13.75-4.69-25.15-9.15-33.68-12.65h-0.02c-4.78,1.3-11.4,2.18-20.5,2.18c-21.55,0-43.85-4.79-58.83-8.83
												c-0.2,0.49-0.4,0.98-0.6,1.52c-0.14,0.4-0.31,0.82-0.45,1.25c-0.07,0.2-0.14,0.4-0.2,0.6c-0.31,0.89-0.62,1.83-0.9,2.85
												c-0.96,3.19-1.85,7.01-2.41,11.47C498.93,793.69,498.79,794.96,498.68,796.32z"/>
										</g>
									</g>
								</g>
							</g>
						</g>
					</g>
				</g>
			</g>
			<g>
				<g>
					<g>
						<g>
							<g>
								<g>
									<g>
										<g>
											<g>
												<path class="st15" d="M498.66,796.52c0,0,0.09,0,0.25,0.02c0.16,0,0.36,0.02,0.63,0.04c0.25,0.02,0.56,0.04,0.9,0.05
													c0.34,0.02,0.74,0.04,1.18,0.07c0.29,0,0.62,0.04,0.96,0.05c0.22,0.02,0.43,0.02,0.65,0.04
													c0.67,0.04,1.39,0.07,2.19,0.13c0.27,0.02,0.56,0.04,0.83,0.05c0.62,0.04,1.25,0.07,1.92,0.11
													c0.81,0.05,1.66,0.09,2.55,0.15c1.27,0.07,2.61,0.15,4.04,0.24c0.54,0.04,1.1,0.05,1.67,0.09
													c0.38,0.02,0.78,0.04,1.18,0.07c0.96,0.05,1.94,0.11,2.93,0.16c0.67,0.04,1.36,0.07,2.06,0.11
													c7.35,0.42,15.69,0.89,24.14,1.31c4.13,0.2,7.91,0.4,11.44,0.56c1.18,0.05,2.3,0.11,3.42,0.16
													c1.68,0.07,3.29,0.16,4.87,0.22c1.03,0.05,2.04,0.09,3.04,0.13c1,0.05,1.97,0.09,2.93,0.13c0,0,0,0,0.02,0
													c1.43,0.05,2.82,0.11,4.2,0.15c0,0,0,0,0.02,0c0.9,0.04,1.81,0.07,2.7,0.09c0.89,0.04,1.79,0.05,2.68,0.07
													c0.87,0.02,1.74,0.04,2.59,0.05c0,0,0,0,0.02,0c0.85,0.02,1.72,0.04,2.57,0.05c2.57,0.04,5.16,0.05,7.8,0.05h1.32
													c0.76,0,1.52,0,2.3-0.02c7.85-0.09,14.21-0.31,18.04-0.47v-4.13c-4.02,0.15-9.74,0.31-16.56,0.38
													c-0.81,0.02-1.59,0.02-2.37,0.02c-15.18,0.05-27.81-0.53-51.32-1.67c-8.72-0.42-17.37-0.87-24.97-1.3
													c-10.12-0.54-18.3-1-22.22-1.23h-0.14c-0.16,1.25-0.31,2.52-0.42,3.88C498.68,796.37,498.66,796.46,498.66,796.52z"/>
											</g>
										</g>
									</g>
								</g>
							</g>
						</g>
					</g>
				</g>
			</g>
			<g>
				<g>
					<path class="st3" d="M338.95,464.94c4.01,0.22,8.83,0.19,12.83,0.4c14.39,0.77,27.02,8.16,41.4,8.91
						c3.33,0.17,6.68,0.35,10.01,0.52c15.64,0.84,31.28,1.67,46.92,2.5c1.24-11.72,2.12-22.61,2.76-32.54
						c0.06-0.81,0.1-1.62,0.15-2.41c0.7-11.26,1.07-21.24,1.27-29.7c1.07-46.5,3.37-57.99-5.74-66.37
						c-9.91-9.1-25.87-13.96-32.38-15.62c-27.1-6.99-49.92,4.8-56.46,8.48c-3.9,21.31-7.66,42.99-11.29,65.04
						c-0.08,0.48-0.16,0.96-0.24,1.42c-0.44,2.72-0.89,5.43-1.32,8.13c-0.97,6.05-1.93,12.07-2.87,18.07
						c-0.62,3.95-1.23,7.87-1.82,11.81l-1.02,6.66c0,0.03-0.01,0.07-0.01,0.1c-0.24,1.54-0.47,3.08-0.69,4.61
						C339.62,460.42,339.75,459.49,338.95,464.94z"/>
				</g>
			</g>
			<g>
				<g>
					<path class="st15" d="M450.05,464.94c-34.58,0.24-69.28-0.77-103.87-0.54c0,0-29.8,59.21-6.37,96.67
						c23.43,37.47,107.06,28.98,107.06,28.98c-12.7-55.4-9.32-77.01-2.46-85.53c1-1.25,4.87-5.68,7.06-12.72
						C454.62,481.65,452.49,471.86,450.05,464.94z"/>
				</g>
			</g>
			<g>
				<g>
					<path class="st0" d="M409.41,555.8c16.05,0,29.38-1.69,30.68-1.86l-0.37-2.8c-0.75,0.1-75.01,9.51-85.76-16.06
						c-10.95-26.04-0.09-55.21,0.02-55.5l0.05-0.16l2.82-11.31l-2.74-0.69l-2.8,11.23c-0.78,2.09-11.15,30.88,0.05,57.52
						C358.16,552.36,386.53,555.8,409.41,555.8z"/>
				</g>
			</g>
			<g>
				<g>
					<polygon class="st21" points="206.03,412.62 233.78,581.27 253.63,701.87 446.61,701.87 436.32,540.7 281.93,540.7 
						265.95,461.29 256.16,412.62 					"/>
				</g>
			</g>
			<g>
				<g>
					<polygon class="st19" points="372.82,540.67 403.43,701.79 447.7,701.79 436.41,540.67 					"/>
				</g>
			</g>
			<g>
				<g>
					<g>
						<g>
							<path class="st9" d="M652.16,400.01l-37.46,86.32c-0.18,0.42-0.53,0.68-0.91,0.68H478.91c-0.81,0-1.3-1.1-0.88-1.97
								l41.9-86.32c0.19-0.39,0.52-0.62,0.88-0.62h130.44C652.04,398.1,652.53,399.15,652.16,400.01z"/>
						</g>
					</g>
				</g>
				<g>
					<g>
						<g>
							<polygon class="st9" points="413.08,487 416.33,477.91 429.73,477.91 431.59,487.49 							"/>
						</g>
					</g>
				</g>
				<g>
					<g>
						<g>
							<polygon class="st9" points="429.48,487.08 432.73,477.98 446.12,477.98 447.99,487.56 							"/>
						</g>
					</g>
				</g>
				<g>
					<g>
						<g>
							<polygon class="st9" points="446.62,487.08 449.88,477.98 463.27,477.98 465.14,487.56 							"/>
						</g>
					</g>
				</g>
				<g>
					<g>
						<g>
							<polygon class="st9" points="463.27,487.08 466.52,477.98 479.92,477.98 481.78,487.56 							"/>
						</g>
					</g>
				</g>
				<g>
					<g>
						<g>
							<rect x="406.68" y="485.05" class="st9" width="207.89" height="13.09"/>
						</g>
					</g>
				</g>
			</g>
			<g>
				<g>
					<path class="st0" d="M447.29,591.16l2.71-0.78c-23.38-81.27-1.52-91.66-1.29-91.76l-1.11-2.6
						C446.59,496.45,423.22,507.5,447.29,591.16z"/>
				</g>
			</g>
			<g>
				<g>
					<path class="st9" d="M338.95,464.94c4.01,0.22,10.83,0.26,20.81-0.57c33.06-29.49,21.82-90.5,21.82-90.5
						c-10.52,7.66-22.67,18.1-33.39,31.71c-0.44,2.72-0.89,5.43-1.32,8.13c-0.97,6.05-1.93,12.07-2.87,18.07
						c-0.62,3.95-1.23,7.87-1.82,11.81l-1.02,6.66c0,0.03-0.01,0.07-0.01,0.1c-0.24,1.54-0.47,3.08-0.69,4.61
						C339.62,460.42,339.75,459.49,338.95,464.94z"/>
				</g>
			</g>
			<g>
				<g>
					<g>
						<path class="st7" d="M410.55,431.88c-5.94,6.69-11.88,13.38-17.82,20.07c-9.93-3.7-72.9-27.42-70.46-39.82
							c0.3-1.53,2.24-6.32,2.38-6.57c2.92-5.52,5.47-10.65,7.72-15.4c1.12-2.38,2.18-4.66,3.17-6.85
							c11.82-26.1,14.51-38.8,24.98-40.36c5.41-0.81,11.21,1.62,14.23,5.26c8.41,10.13-2.56,32.05-7.68,42.34
							c-1.76,3.55-3.59,6.74-5.36,9.56c-2.09,3.34-4.09,6.14-5.81,8.39c-0.19,0.26-0.38,0.5-0.57,0.74
							C373.73,416.79,392.14,424.34,410.55,431.88z"/>
					</g>
				</g>
				<g>
					<g>
						<path class="st11" d="M359.27,389.13l2.42,10.99c-2.09,3.34-4.09,6.14-5.81,8.39c-9.17-2.84-17.8-11.47-23.52-18.35
							c1.12-2.38,2.18-4.66,3.17-6.85L359.27,389.13z"/>
					</g>
				</g>
				<g>
					<g>
						<path class="st3" d="M328.92,382.17c1.34-6.09,4.55-16.84,12.94-27.5c6.21-7.89,12.98-12.86,17.73-15.78
							c3.12-0.5,9.76-1.07,14.62,2.89c6.32,5.16,5.46,14.77,4.94,23.6c-0.99,16.89-8.01,30.22-13.37,38.27
							c-5.05-1.28-11.64-3.49-18.75-7.47C338.79,391.58,332.84,386.27,328.92,382.17z"/>
					</g>
				</g>
				<g>
					<g>
						<g>
							<path class="st7" d="M397.22,439.9c4.42-5.59,8.77-9.97,12.45-13.27c8.17-7.35,8.2-5.08,11.8-9.2c0.87-1,3.13-3.72,5.04-3.19
								c0.13,0.04,0.88,0.24,1.23,0.92c0.95,1.83-1.74,5.84-6.23,12.44c-0.02,0.03-0.04,0.06-0.04,0.11
								c0.02,1.04,12.42,2.59,23.82,3.04c4.35,0.17,9.33,0.22,10.9,3.09c0.19,0.34,0.56,1.03,0.31,1.66
								c-0.77,1.99-6.65,0.99-13.59,0.86c-3.27-0.06-7.92,0.04-13.59,0.86c0.39,0.71,0.78,1.41,1.17,2.12
								c5.39,0.01,10.03,0.03,14.71,0.03c2.53,0,6.07-0.01,7.27,2.06c0.13,0.23,0.55,0.95,0.31,1.66c-0.51,1.54-3.7,1.77-9.95,1.89
								c-3,0.06-6.9,0.1-11.49,0.04c1.52,0.27,3.77,0.63,6.52,0.9c5.64,0.56,8.19,0.25,8.92,1.75c0.58,1.19-0.32,2.83-1.03,3.64
								c-1.39,1.58-3.51,1.61-5.84,1.64c-1.5,0.02-3.91-0.13-6.77-1.2c-0.31,0.41-0.61,0.82-0.92,1.24c2.5-0.97,4.91-0.01,5.54,1.56
								c0.5,1.22-0.1,2.76-1.03,3.64c-1.22,1.15-2.93,1.08-4.98,0.95c-2.65-0.18-6.07-0.49-10.1-1.06
								c-10.29-2.22-20.59-4.43-30.88-6.65C392.92,447.59,395.07,443.74,397.22,439.9z"/>
						</g>
					</g>
				</g>
			</g>
			<g>
				<g>
					<g>
						<path class="st7" d="M438.73,290.84c-0.76,6.34-1.52,12.67-2.28,19c-0.59,4.83-1.18,9.67-1.75,14.51
							c-0.03,0.25-0.07,0.52-0.1,0.77c-0.44,3.57-0.86,7.13-1.28,10.68c-0.29,2.34-1.16,4.81-2.92,6.53
							c-2.21,2.15-4.45,3.98-9.37,4.38c-5.57,0.44-9.79-0.1-13.6-4.24c-2.19-2.36-4.62-6.32-4.31-9.31l6.66-46.99
							c0.65-6.25,3.49-9.62,10.5-8.87l6.96,0.74C434.32,278.77,439.49,284.55,438.73,290.84z"/>
					</g>
				</g>
				<g>
					<g>
						<g>
							<g>
								<path class="st11" d="M436.1,313.15c-0.64,5.36-1.27,10.73-1.91,16.09c-23.02-5.39-23.24-20.74-23.24-20.74L436.1,313.15z"
									/>
							</g>
						</g>
					</g>
				</g>
				<g>
					<g>
						<g>
							<path class="st17" d="M405.55,254.42c-1.57,1.38-3.17,2.68-4.65,4.12c-1.52,1.38-2.99,2.81-4.35,4.32
								c-2.7,3-5.38,6.16-6.94,9.73c-0.86,1.76-1.47,3.63-1.85,5.58c-0.4,1.94-0.53,4.04-0.99,6.1c-0.41,2.06-0.87,4.1-1.4,6.13
								c-0.61,2.01-1.2,4.01-1.99,5.95l-0.14-0.04c1.01-4.02,1.83-8.1,2.39-12.2c0.3-2.05,0.44-4.12,0.8-6.18
								c0.35-2.05,0.96-4.07,1.84-5.97c1.8-3.79,4.55-7,7.48-9.93c2.97-2.91,6.26-5.47,9.74-7.74L405.55,254.42z"/>
						</g>
					</g>
					<g>
						<g>
							<path class="st7" d="M450.04,279.6c1.13,7.51,1.06,13.78,0.74,18.26c-0.71,10.15-2.89,14.02-4.05,15.79
								c-2.15,3.27-4.49,4.92-5.11,5.34c-3.78,2.56-7.52,2.9-9.23,3.03c-0.52,0.04-11.84,0.75-18.51-7.38
								c-2.28-2.78-3.38-5.82-4.62-13.19c-1.14-6.8-2.27-16.56-1.99-28.69c2.73-1.83,6.8-4.61,11.64-8.17
								c8.8-6.46,10.21-8.15,12.72-8.3C433.88,256.17,440.84,257.05,450.04,279.6z"/>
						</g>
					</g>
					<g>
						<g>
							<path class="st17" d="M402.37,282c7.72,1.35,12.89-0.19,16.24-2c1.87-1.01,5.36-3.2,9.19-6.53
								c2.79-2.42,5.24-4.08,10.47-8.56c0.14,1.05,1.59,8.57,9.29,12.65c3.74,1.98,6.63,2.46,8.49,2.33
								c-0.41-4.75-1.77-15.13-7.33-23.11c-4.03-5.79-7.53-6.38-8.29-6.48c-1.84-0.25-3.42,0.17-4.43,0.55
								c-1.77-0.85-4.43-1.85-7.74-2.05c-10.54-0.63-21.01,7.33-24.89,17.38C400.91,272.58,401.62,278.56,402.37,282z"/>
						</g>
					</g>
					<g>
						<g>
							<g>
								<path class="st7" d="M396.59,289.14c0.61,4.99,4.38,8.63,8.42,8.14c4.03-0.5,6.81-4.95,6.2-9.94
									c-0.61-4.99-4.38-8.63-8.42-8.14C398.75,279.7,395.98,284.15,396.59,289.14z"/>
							</g>
						</g>
					</g>
				</g>
				<g>
					<path class="st11" d="M437.02,303.89c2.47,0.31,4.39-0.61,5.07-2.46c0.53-1.43,0.23-2.59-0.11-3.3
						c-0.52-1.1-1.06-1.64-1.8-2.39l-0.52-0.53c-1.06-1.11-1.83-2.41-2.16-3.68c-0.65-2.49-0.49-4.2-0.33-5
						c0.08-0.4-0.17-0.79-0.55-0.87c-0.34-0.05-0.75,0.19-0.83,0.59c-0.18,0.93-0.37,2.9,0.36,5.69c0.39,1.51,1.29,3.05,2.52,4.33
						l0.54,0.55c0.71,0.72,1.1,1.11,1.52,1.99c0.31,0.65,0.33,1.36,0.06,2.1c-0.45,1.23-1.95,1.78-3.85,1.46
						c-0.46-0.07-0.75,0.21-0.81,0.62c-0.07,0.41,0.19,0.79,0.57,0.85C436.8,303.86,436.91,303.88,437.02,303.89z"/>
					<path class="st11" d="M433.29,310.72c0.35,0.02,0.71,0.02,1.09,0c1.15-0.07,2.25-0.49,3.27-1.23c0.33-0.24,0.41-0.71,0.17-1.04
						c-0.24-0.33-0.71-0.41-1.04-0.17c-0.79,0.57-1.63,0.89-2.49,0.95c-1.04,0.07-1.85-0.07-3-0.52c-0.92-0.36-1.58-0.79-2.45-1.58
						c-0.61-0.55-1.09-1.23-1.43-2.01c-0.16-0.38-0.6-0.55-0.98-0.38c-0.38,0.16-0.55,0.6-0.38,0.98c0.42,0.98,1.03,1.82,1.79,2.52
						c1.01,0.92,1.82,1.44,2.91,1.87C431.69,310.47,432.47,310.66,433.29,310.72z"/>
					<g>
						<path class="st18" d="M445.49,287.92c0.06,1.61-0.58,2.94-1.42,2.97c-0.84,0.03-1.56-1.25-1.61-2.87
							c-0.05-1.61,0.58-2.94,1.42-2.97C444.71,285.03,445.44,286.31,445.49,287.92z"/>
					</g>
					<g>
						<path class="st18" d="M429.1,288.61c0.06,1.61-0.58,2.94-1.42,2.97c-0.84,0.03-1.56-1.25-1.61-2.87
							c-0.06-1.61,0.58-2.94,1.42-2.97C428.33,285.72,429.05,287,429.1,288.61z"/>
					</g>
					<path class="st11" d="M402.85,292.04c0.24,0.02,0.49-0.08,0.65-0.28c0.25-0.31,0.18-0.75-0.16-0.98
						c-1.03-0.72-2.36-1.9-2.84-3.39c-0.38-1.19-0.2-2.59,0.45-3.48c0.42-0.57,0.97-0.89,1.64-0.93c0.65-0.05,1.45,0.17,2.31,0.62
						c0.36,0.18,0.81,0.06,1.01-0.27c0.2-0.34,0.06-0.76-0.3-0.95c-1.14-0.59-2.2-0.85-3.14-0.79c-1.11,0.08-2.08,0.62-2.75,1.53
						c-0.91,1.24-1.16,3.08-0.65,4.67c0.59,1.85,2.16,3.26,3.37,4.11C402.58,291.99,402.72,292.03,402.85,292.04z"/>
					<g>
						<g>
							<g>
								<path class="st17" d="M420.36,282.95l-0.03-0.04c-0.36-0.54-0.19-1.27,0.38-1.58c1.84-1.04,5.8-2.9,9.12-1.97
									c0.7,0.2,1.05,0.99,0.69,1.63l-0.03,0.05c-0.26,0.45-0.78,0.65-1.28,0.51c-2.34-0.66-5.57,0.73-7.4,1.76
									C421.31,283.59,420.68,283.43,420.36,282.95z"/>
							</g>
						</g>
						<g>
							<g>
								<path class="st17" d="M450.32,282.48l0.03-0.04c0.35-0.55,0.16-1.27-0.41-1.58c-1.86-1-5.86-2.79-9.16-1.79
									c-0.7,0.21-1.03,1.01-0.66,1.64l0.03,0.05c0.26,0.45,0.8,0.63,1.29,0.48c2.33-0.7,5.58,0.62,7.43,1.62
									C449.38,283.13,450.01,282.96,450.32,282.48z"/>
							</g>
						</g>
					</g>
				</g>
			</g>
		</g>
	</g>
</g>
</svg>
